<svg width="38" height="32" viewBox="0 0 38 32" fill="none" xmlns="http://www.w3.org/2000/svg">
<path d="M19.0512 22.0663C18.5115 22.1687 17.9545 22.2222 17.3851 22.2222C13.4049 22.2222 10.0358 19.6063 8.90308 16C9.21143 15.0182 9.68553 14.1099 10.2926 13.3077M15.499 14.1144C15.9816 13.6318 16.6483 13.3333 17.3846 13.3333C18.8574 13.3333 20.0513 14.5272 20.0513 16C20.0513 16.7364 19.7528 17.403 19.2702 17.8856M15.499 14.1144L19.2702 17.8856M15.499 14.1144L12.575 11.1904M19.2702 17.8856L22.1946 20.81M12.575 11.1904L9.38463 8M12.575 11.1904C13.9615 10.2965 15.6127 9.77778 17.385 9.77778C21.3652 9.77778 24.7343 12.3937 25.8669 16C25.2386 18.0006 23.922 19.6964 22.1946 20.81M22.1946 20.81L25.3846 24" stroke="#307FE2" stroke-width="2" stroke-linecap="round" stroke-linejoin="round"/>
</svg>
