<svg width="100" height="101" viewBox="0 0 100 101" fill="none" xmlns="http://www.w3.org/2000/svg">
<circle cx="50" cy="50.5" r="50" fill="#333333"/>
<g clip-path="url(#clip0_344_709)">
<path d="M60.444 28.5C60.0377 28.5 58.937 28.9837 58.7358 29.0737C58.7145 29.0832 58.6936 29.0933 58.6728 29.1038L45.416 35.808C43.644 36.508 42.944 39.332 44.008 40.744L46.7884 44.7799C47.371 45.6255 47.0765 46.7907 46.1621 47.2581L34.432 53.2531C33.3129 53.8251 33.1799 55.3718 34.185 56.1264L39.0857 59.8056C39.6386 60.2206 40.3876 60.2596 40.9805 59.9042L49.1335 55.0163C49.6718 54.6936 50.3441 54.6937 50.8823 55.0166L58.8698 59.8091C59.5387 60.2104 60.395 60.105 60.9466 59.5534L62.9734 57.5266C63.5717 56.9283 63.639 55.9813 63.1314 55.3045L53.1483 41.9938C52.543 41.1867 52.7697 40.033 53.6355 39.515L62.244 34.364C64.356 33.3 64.016 31.548 64.016 30.484C64 29.644 62.576 28.5 60.444 28.5ZM69.008 40.5C68.0885 40.4992 67.1778 40.6795 66.328 41.0307C65.4782 41.3819 64.7058 41.897 64.0551 42.5466C63.4043 43.1962 62.8879 43.9677 62.5353 44.8169C62.1827 45.6661 62.0008 46.5765 62 47.496C61.9992 48.4155 62.1795 49.3262 62.5307 50.176C62.8819 51.0258 63.397 51.7982 64.0466 52.4489C64.6962 53.0997 65.4677 53.6161 66.3169 53.9687C67.1661 54.3213 68.0765 54.5032 68.996 54.504C70.853 54.5056 72.6347 53.7694 73.9489 52.4574C75.2632 51.1454 76.0024 49.365 76.004 47.508C76.0056 45.651 75.2694 43.8693 73.9574 42.5551C72.6454 41.2408 70.865 40.5016 69.008 40.5ZM30.8746 61.0248C30.3363 60.7018 29.6637 60.7018 29.1254 61.0248L20.8254 66.0048C20.3133 66.312 20 66.8654 20 67.4625V69.4975C20 70.8189 21.4416 71.6351 22.5746 70.9552L29.1254 67.0248C29.6637 66.7018 30.3363 66.7018 30.8746 67.0248L39.1257 71.9754C39.6639 72.2983 40.3362 72.2984 40.8745 71.9757L49.1335 67.0243C49.6718 66.7016 50.3441 66.7017 50.8823 67.0246L59.0273 71.9116C59.6203 72.2674 60.3696 72.2285 60.9226 71.8134L67.1593 67.1311C67.6745 66.7444 68.364 66.682 68.9402 66.9701L77.5397 71.2699C78.6701 71.835 80 71.0131 80 69.7493V67.5507C80 66.9067 79.6362 66.3181 79.0603 66.0301L68.9402 60.9701C68.364 60.682 67.6745 60.7444 67.1593 61.1311L60.9226 65.8134C60.3696 66.2285 59.6203 66.2674 59.0273 65.9116L50.8823 61.0246C50.3441 60.7017 49.6718 60.7016 49.1335 61.0243L40.8745 65.9757C40.3362 66.2984 39.6639 66.2983 39.1257 65.9754L30.8746 61.0248Z" fill="white"/>
</g>
<defs>
<clipPath id="clip0_344_709">
<rect width="60" height="60" fill="white" transform="translate(20 20.5)"/>
</clipPath>
</defs>
</svg>
